<?xml version="1.0" encoding="utf-8"?>
<!-- Generator: Adobe Illustrator 15.1.0, SVG Export Plug-In . SVG Version: 6.00 Build 0)  -->
<!DOCTYPE svg PUBLIC "-//W3C//DTD SVG 1.1//EN" "http://www.w3.org/Graphics/SVG/1.1/DTD/svg11.dtd">
<svg version="1.1" id="Layer_1" xmlns="http://www.w3.org/2000/svg" xmlns:xlink="http://www.w3.org/1999/xlink" x="0px" y="0px"
	 width="100px" height="77.52px" viewBox="0 0 100 77.52" enable-background="new 0 0 100 77.52" xml:space="preserve">
<path d="M71.441,44.265c-1.189,0-2.152,0.962-2.152,2.151c0,0.33,0.08,0.639,0.215,0.92l-0.021,0.01
	c1.336,2.842,2.092,6.005,2.092,9.348c0,3.342-0.756,6.506-2.092,9.348l0.021,0.01c-0.135,0.281-0.215,0.592-0.215,0.922
	c0,1.188,0.963,2.15,2.152,2.15c0.936,0,1.725-0.602,2.02-1.437c1.543-3.349,2.416-7.068,2.416-10.992s-0.873-7.644-2.416-10.991
	C73.166,44.865,72.377,44.265,71.441,44.265z"/>
<path d="M82.463,40.176c-1.188,0-2.15,0.965-2.15,2.151c0,0.329,0.078,0.634,0.209,0.914l-0.012,0.005
	c1.961,4.079,3.08,8.637,3.122,13.448c-0.042,4.812-1.161,9.369-3.122,13.45l0.012,0.004c-0.131,0.277-0.209,0.586-0.209,0.912
	c0,1.188,0.962,2.151,2.15,2.151c0.906,0,1.68-0.562,1.995-1.358c2.188-4.605,3.435-9.739,3.477-15.158
	c-0.042-5.419-1.288-10.553-3.477-15.158C84.143,40.739,83.369,40.176,82.463,40.176z"/>
<path d="M95.729,37.39c-0.023-0.062-0.053-0.121-0.081-0.18l0,0c-0.353-0.709-1.075-1.202-1.921-1.202
	c-1.188,0-2.15,0.963-2.15,2.151c0,0.312,0.07,0.608,0.189,0.876l-0.01,0.005c2.523,5.361,3.941,11.344,3.941,17.652
	c0,6.311-1.418,12.291-3.941,17.653l0.01,0.005c-0.119,0.269-0.189,0.562-0.189,0.877c0,1.188,0.962,2.15,2.15,2.15
	c0.846,0,1.568-0.492,1.921-1.201l0,0c0.028-0.061,0.058-0.119,0.081-0.181c2.736-5.872,4.271-12.409,4.271-19.303
	C100,49.801,98.464,43.262,95.729,37.39z"/>
<path d="M64.74,45.373l-6.124-15.418c0,0-0.631-6.388-1.208-8.833c-2.549-11-14.812-20.981-28.111-20.981
	C13.12,0.141,0,13.263,0,29.454c0,9.351,4.379,17.685,11.2,23.05v24.873H42.47v-8.971h4.592c6.38,0,11.554-5.174,11.554-11.561
	v-8.191h3.929c1.305,0,2.371-1.062,2.371-2.362C64.918,45.965,64.857,45.65,64.74,45.373z M48.422,36.522
	c-2.213,0-4.007-1.793-4.007-4.007c0-2.213,1.794-4.007,4.007-4.007s4.007,1.794,4.007,4.007
	C52.43,34.729,50.637,36.522,48.422,36.522z"/>
</svg>
